<svg width="39" height="20" viewBox="0 0 39 20" fill="none" xmlns="http://www.w3.org/2000/svg">
<path d="M0 1H39L35.1951 10L39 19H0V1Z" fill="#177D5D"/>
<path d="M12.3203 9.39648V10.5H9.56152V9.39648H12.3203ZM18.5941 10.3438V11.4473H13.472L13.4036 10.5928L16.3675 5.89062H17.4857L16.2747 7.91699L14.8001 10.3438H18.5941ZM17.7884 5.89062V13H16.3821V5.89062H17.7884ZM24.3209 8.82031V10.0508C24.3209 10.5846 24.264 11.0452 24.15 11.4326C24.0361 11.8167 23.8717 12.1325 23.6569 12.3799C23.4453 12.624 23.193 12.8047 22.9 12.9219C22.6071 13.0391 22.2815 13.0977 21.9235 13.0977C21.637 13.0977 21.3701 13.0618 21.1227 12.9902C20.8753 12.9154 20.6523 12.7998 20.4537 12.6436C20.2584 12.4873 20.0892 12.2904 19.9459 12.0527C19.806 11.8118 19.6985 11.5254 19.6237 11.1934C19.5488 10.8613 19.5114 10.4805 19.5114 10.0508V8.82031C19.5114 8.28646 19.5683 7.8291 19.6823 7.44824C19.7995 7.06413 19.9638 6.75 20.1754 6.50586C20.3903 6.26172 20.6442 6.08268 20.9371 5.96875C21.2301 5.85156 21.5556 5.79297 21.9137 5.79297C22.2002 5.79297 22.4655 5.8304 22.7096 5.90527C22.957 5.97689 23.18 6.08919 23.3786 6.24219C23.5771 6.39518 23.7464 6.59212 23.8864 6.83301C24.0263 7.07064 24.1338 7.35547 24.2086 7.6875C24.2835 8.01628 24.3209 8.39388 24.3209 8.82031ZM22.9098 10.2363V8.62988C22.9098 8.37272 22.8952 8.14811 22.8659 7.95605C22.8398 7.764 22.7991 7.60124 22.7438 7.46777C22.6885 7.33105 22.6201 7.22038 22.5387 7.13574C22.4573 7.05111 22.3646 6.98926 22.2604 6.9502C22.1562 6.91113 22.0407 6.8916 21.9137 6.8916C21.7542 6.8916 21.6126 6.92253 21.4889 6.98438C21.3685 7.04622 21.2659 7.14551 21.1813 7.28223C21.0967 7.41569 21.0315 7.59473 20.986 7.81934C20.9437 8.04069 20.9225 8.31087 20.9225 8.62988V10.2363C20.9225 10.4935 20.9355 10.7197 20.9616 10.915C20.9909 11.1104 21.0332 11.278 21.0885 11.418C21.1471 11.5547 21.2155 11.667 21.2936 11.7549C21.375 11.8395 21.4677 11.9014 21.5719 11.9404C21.6793 11.9795 21.7965 11.999 21.9235 11.999C22.0797 11.999 22.2181 11.9681 22.3385 11.9062C22.4622 11.8411 22.5664 11.7402 22.651 11.6035C22.7389 11.4635 22.804 11.2812 22.8463 11.0566C22.8886 10.832 22.9098 10.5586 22.9098 10.2363ZM25.4384 7.63379V7.25781C25.4384 6.98763 25.497 6.74186 25.6142 6.52051C25.7314 6.29915 25.9039 6.12174 26.1318 5.98828C26.3597 5.85482 26.6396 5.78809 26.9716 5.78809C27.3134 5.78809 27.5983 5.85482 27.8261 5.98828C28.0573 6.12174 28.2298 6.29915 28.3437 6.52051C28.4609 6.74186 28.5195 6.98763 28.5195 7.25781V7.63379C28.5195 7.89746 28.4609 8.13997 28.3437 8.36133C28.2298 8.58268 28.0589 8.76009 27.831 8.89355C27.6032 9.02702 27.3216 9.09375 26.9863 9.09375C26.6477 9.09375 26.3629 9.02702 26.1318 8.89355C25.9039 8.76009 25.7314 8.58268 25.6142 8.36133C25.497 8.13997 25.4384 7.89746 25.4384 7.63379ZM26.3711 7.25781V7.63379C26.3711 7.74772 26.3922 7.85677 26.4345 7.96094C26.4801 8.06185 26.5485 8.14486 26.6396 8.20996C26.734 8.27181 26.8479 8.30273 26.9814 8.30273C27.1214 8.30273 27.2353 8.27181 27.3232 8.20996C27.4111 8.14486 27.4762 8.06185 27.5185 7.96094C27.5608 7.85677 27.582 7.74772 27.582 7.63379V7.25781C27.582 7.13737 27.5592 7.02669 27.5136 6.92578C27.4713 6.82161 27.4046 6.73861 27.3134 6.67676C27.2255 6.61165 27.1116 6.5791 26.9716 6.5791C26.8414 6.5791 26.7308 6.61165 26.6396 6.67676C26.5485 6.73861 26.4801 6.82161 26.4345 6.92578C26.3922 7.02669 26.3711 7.13737 26.3711 7.25781ZM28.8369 11.6328V11.2568C28.8369 10.9899 28.8955 10.7458 29.0127 10.5244C29.1331 10.3031 29.3073 10.1257 29.5351 9.99219C29.7662 9.85872 30.0494 9.79199 30.3847 9.79199C30.7233 9.79199 31.0065 9.85872 31.2343 9.99219C31.4622 10.1257 31.6347 10.3031 31.7519 10.5244C31.8691 10.7458 31.9277 10.9899 31.9277 11.2568V11.6328C31.9277 11.8997 31.8691 12.1439 31.7519 12.3652C31.638 12.5866 31.4671 12.764 31.2392 12.8975C31.0114 13.0309 30.7298 13.0977 30.3945 13.0977C30.056 13.0977 29.7711 13.0309 29.54 12.8975C29.3089 12.764 29.1331 12.5866 29.0127 12.3652C28.8955 12.1439 28.8369 11.8997 28.8369 11.6328ZM29.7744 11.2568V11.6328C29.7744 11.75 29.8004 11.8607 29.8525 11.9648C29.9046 12.069 29.9762 12.152 30.0673 12.2139C30.1617 12.2757 30.2708 12.3066 30.3945 12.3066C30.5507 12.3066 30.6728 12.2757 30.7607 12.2139C30.8486 12.152 30.9088 12.069 30.9414 11.9648C30.9772 11.8607 30.9951 11.75 30.9951 11.6328V11.2568C30.9951 11.1396 30.9723 11.0306 30.9267 10.9297C30.8811 10.8255 30.8128 10.7425 30.7216 10.6807C30.6337 10.6156 30.5214 10.583 30.3847 10.583C30.248 10.583 30.1341 10.6156 30.0429 10.6807C29.955 10.7425 29.8883 10.8255 29.8427 10.9297C29.7972 11.0306 29.7744 11.1396 29.7744 11.2568ZM30.7314 6.90625L27.2597 12.4629L26.5761 12.1016L30.0478 6.54492L30.7314 6.90625Z" fill="white"/>
</svg>
