<svg width="40" height="36" viewBox="0 0 40 36" fill="none" xmlns="http://www.w3.org/2000/svg">
<rect width="40" height="36" fill="white"/>
<path d="M28.2354 24.3661L28.2353 24.3663C28.1842 24.6417 28.0357 24.8938 27.8118 25.0771C27.5875 25.2606 27.3024 25.3629 27.006 25.363H17.341H16.6158L15.44 19.0185H15.8911H29.2298L28.2354 24.3661ZM25.6218 30.7025C25.4864 30.5037 25.415 30.2716 25.415 30.0355V30.0352C25.415 29.9009 25.4388 29.7674 25.4855 29.6404L25.7858 28.8241H26.6647C26.9151 28.8241 27.1587 28.897 27.3646 29.0319C27.5704 29.1668 27.7285 29.3569 27.8213 29.5766C27.914 29.7961 27.938 30.0367 27.891 30.2687C27.8439 30.5009 27.7273 30.7161 27.5536 30.8865C27.3797 31.057 27.1565 31.1747 26.9112 31.2225C26.666 31.2704 26.4119 31.2457 26.1817 31.1522C25.9517 31.0588 25.7574 30.9015 25.6218 30.7025ZM17.2864 28.9814L17.2573 28.8241H17.7076H18.8781L19.1784 29.6404C19.2251 29.7674 19.2489 29.9011 19.2489 30.0355L19.2489 30.0367C19.2493 30.2295 19.2021 30.4202 19.1106 30.5926C19.0191 30.7652 18.8855 30.915 18.72 31.0282C18.5545 31.1415 18.3624 31.2145 18.1601 31.2399C17.9576 31.2654 17.7522 31.2424 17.5614 31.1732C17.3708 31.1041 17.2015 30.9913 17.0672 30.8457C16.9331 30.7001 16.8379 30.5261 16.7885 30.339C16.7391 30.1519 16.7366 29.9561 16.7812 29.7679C16.8258 29.5797 16.9165 29.4035 17.0467 29.2549L17.2864 28.9814Z" stroke="#B5B5B5" stroke-width="1.5"/>
<g filter="url(#filter0_d_0_201)">
<rect x="6" y="8" width="12" height="12" rx="6" fill="#333333" shape-rendering="crispEdges"/>
<path d="M13.1437 10.4545V17H11.7598V11.7681H11.7215L10.2226 12.7077V11.4805L11.8429 10.4545H13.1437Z" fill="white"/>
</g>
<defs>
<filter id="filter0_d_0_201" x="2" y="5" width="18" height="18" filterUnits="userSpaceOnUse" color-interpolation-filters="sRGB">
<feFlood flood-opacity="0" result="BackgroundImageFix"/>
<feColorMatrix in="SourceAlpha" type="matrix" values="0 0 0 0 0 0 0 0 0 0 0 0 0 0 0 0 0 0 127 0" result="hardAlpha"/>
<feOffset dx="-1"/>
<feGaussianBlur stdDeviation="1.5"/>
<feComposite in2="hardAlpha" operator="out"/>
<feColorMatrix type="matrix" values="0 0 0 0 0.439216 0 0 0 0 0.439216 0 0 0 0 0.501961 0 0 0 0.4 0"/>
<feBlend mode="normal" in2="BackgroundImageFix" result="effect1_dropShadow_0_201"/>
<feBlend mode="normal" in="SourceGraphic" in2="effect1_dropShadow_0_201" result="shape"/>
</filter>
</defs>
</svg>
