<svg width="25" height="24" viewBox="0 0 25 24" fill="none" xmlns="http://www.w3.org/2000/svg">
<path d="M18.0451 19.205L14.3289 15.4896C15.406 14.1965 15.9431 12.5379 15.8285 10.8589C15.7139 9.17986 14.9563 7.60967 13.7135 6.47495C12.4706 5.34023 10.8382 4.72835 9.15568 4.76658C7.47319 4.80482 5.87021 5.49024 4.6802 6.68024C3.49019 7.87025 2.80477 9.47324 2.76653 11.1557C2.7283 12.8382 3.34018 14.4707 4.4749 15.7135C5.60962 16.9564 7.17981 17.7139 8.85883 17.8285C10.5378 17.9432 12.1964 17.4061 13.4895 16.329L17.2049 20.0451C17.2601 20.1003 17.3256 20.1441 17.3977 20.1739C17.4697 20.2038 17.547 20.2191 17.625 20.2191C17.703 20.2191 17.7803 20.2038 17.8523 20.1739C17.9244 20.1441 17.9899 20.1003 18.0451 20.0451C18.1002 19.99 18.144 19.9245 18.1739 19.8524C18.2037 19.7803 18.2191 19.7031 18.2191 19.625C18.2191 19.547 18.2037 19.4698 18.1739 19.3977C18.144 19.3256 18.1002 19.2601 18.0451 19.205ZM3.96875 11.3125C3.96875 10.2557 4.28216 9.22249 4.86933 8.34372C5.45651 7.46494 6.29109 6.78002 7.26754 6.37557C8.24398 5.97111 9.31843 5.86529 10.355 6.07148C11.3916 6.27767 12.3438 6.78661 13.0911 7.53395C13.8384 8.28128 14.3474 9.23345 14.5536 10.27C14.7598 11.3066 14.6539 12.3811 14.2495 13.3575C13.845 14.334 13.1601 15.1685 12.2813 15.7557C11.4026 16.3429 10.3694 16.6563 9.3125 16.6563C7.89573 16.6547 6.53744 16.0912 5.53563 15.0894C4.53383 14.0876 3.97032 12.7293 3.96875 11.3125Z" fill="#B5B5B5"/>
</svg>
